<svg width="216" height="254" viewBox="0 0 216 254" fill="none" xmlns="http://www.w3.org/2000/svg">
<g clip-path="url(#clip0_2007_102)">
<path opacity="0.95" fill-rule="evenodd" clip-rule="evenodd" d="M32.1 -0.299988C33.6547 0.152412 34.7545 1.15261 35.4001 2.70001C38.0238 7.84921 39.0241 13.2492 38.4001 18.9C39.9985 15.7296 41.5987 12.5298 43.2001 9.30001C48.9667 1.86361 56.4667 -1.13639 65.7001 0.300012C63.1231 6.16021 59.7229 11.46 55.5 16.2C51.7272 18.7944 47.5273 19.9944 42.9001 19.8C42.4999 20.4 42.1003 21 41.7001 21.6C48.1285 20.6166 54.3283 21.4164 60.3001 24C61.3531 24.432 61.8535 25.1322 61.8001 26.1C55.9267 31.5888 49.0266 34.6884 41.1001 35.4C38.6113 35.0034 36.2113 34.3038 33.9001 33.3C31.9429 35.6142 30.6432 38.214 30 41.1C37.0489 36.6558 44.5489 35.7558 52.5 38.4C49.1239 43.1766 45.1236 47.3766 40.5 51C35.868 53.6544 30.9678 54.3546 25.8001 53.1C24.3456 55.92 23.7456 58.92 24 62.1C29.2608 56.511 35.7607 53.9106 43.5 54.3C41.5794 61.242 38.1799 67.3422 33.3 72.6C30.0331 74.8164 26.4331 75.9162 22.5 75.9C22.2738 79.9542 22.5739 83.9544 23.4 87.9C27.0396 80.7612 32.7397 76.1616 40.5 74.1C40.2835 81.0018 38.7835 87.6018 36 93.9C33.3469 97.2822 30.0469 99.882 26.1 101.7C27.3414 104.924 28.6416 108.124 30 111.3C31.2619 103.174 35.2621 96.774 42 92.1C44.0989 98.3022 44.8993 104.702 44.4001 111.3C43.1064 116.191 40.4065 120.091 36.3 123C38.3274 125.754 40.4275 128.454 42.6001 131.1C42.2395 122.778 44.8393 115.578 50.4001 109.5C54.4027 115.505 56.7024 122.105 57.3001 129.3C57.1171 134.05 55.5168 138.25 52.5 141.9C55.0956 144.394 57.7957 146.794 60.6001 149.1C58.5643 140.314 59.9647 132.114 64.8 124.5C69.1956 129.7 72.5958 135.5 75.0001 141.9C76.4785 147.29 75.7783 152.39 72.9001 157.2C76.0237 159.062 79.2241 160.762 82.5001 162.3C82.6999 162.1 82.9003 161.9 83.1001 161.7C78.2514 154.694 77.2513 147.294 80.1001 139.5C86.0587 142.958 90.9583 147.558 94.8 153.3C96.3703 157.819 96.6702 162.419 95.7001 167.1C99.8005 168.776 104 170.176 108.3 171.3C112.505 170.098 116.705 168.898 120.9 167.7C118.675 158.492 121.274 150.992 128.7 145.2C131.27 143.631 133.67 141.831 135.9 139.8C136.469 139.51 137.069 139.411 137.7 139.5C139.45 147.551 138.049 154.951 133.5 161.7C133.8 161.9 134.1 162.1 134.4 162.3C137.646 160.851 140.746 159.151 143.7 157.2C139.625 150.057 139.724 142.957 144 135.9C146.6 132.1 149.2 128.3 151.8 124.5C156.752 132.067 158.153 140.266 156 149.1C158.6 146.9 161.2 144.7 163.8 142.5C163.012 140.315 162.011 138.115 160.8 135.9C158.87 130.918 158.87 125.918 160.8 120.9C162.403 116.893 164.303 113.093 166.5 109.5C172.162 115.786 174.662 123.185 174 131.7C176.1 128.8 178.2 125.9 180.3 123C176.177 120.045 173.477 116.145 172.2 111.3C171.819 105.085 172.519 98.985 174.3 93C174.51 92.2458 174.91 92.0454 175.5 92.4C181.886 97.0644 185.585 103.364 186.6 111.3C188.193 108.22 189.493 105.02 190.5 101.7C183.964 99.264 179.863 94.6638 178.2 87.9C177.415 83.502 176.715 79.1022 176.1 74.7C184.04 75.9486 189.74 80.3484 193.2 87.9C194.133 83.9742 194.633 79.974 194.7 75.9C187.318 75.8616 181.818 72.6612 178.2 66.3C176.326 62.5752 174.625 58.7754 173.1 54.9C181.181 53.8944 187.882 56.4948 193.2 62.7C193.078 59.4066 192.378 56.2068 191.1 53.1C182.386 54.996 175.286 52.3962 169.8 45.3C167.985 43.1856 166.285 40.9854 164.7 38.7C165.635 37.7214 166.835 37.2216 168.3 37.2C174.967 36.0528 181.067 37.353 186.6 41.1C185.957 38.214 184.657 35.6142 182.7 33.3C175.816 36.846 169.216 36.3462 162.9 31.8C159.97 29.8392 157.169 27.7392 154.5 25.5C160.901 21.2058 167.801 20.2056 175.2 22.5C175.298 21.3678 174.797 20.4678 173.7 19.8C165.7 20.1522 159.8 16.8522 156 9.90001C154.376 6.55321 152.677 3.25321 150.9 1.21891e-05C160.492 -1.05299 168.191 2.24701 174 9.90001C175.312 12.963 176.712 15.963 178.2 18.9C177.376 11.6742 179.276 5.27401 183.9 -0.299988C187.352 4.20421 189.852 9.20401 191.4 14.7C192.52 21.024 191.02 26.6238 186.9 31.5C187.8 33.3 188.7 35.1 189.6 36.9C191.12 30.0582 194.62 24.4584 200.1 20.1C203.721 27.663 204.621 35.463 202.8 43.5C201.055 47.1432 198.556 50.1432 195.3 52.5C196.188 55.653 196.888 58.8534 197.4 62.1C200.147 54.753 205.147 49.5528 212.4 46.5C213.134 53.2368 212.534 59.8368 210.6 66.3C208.172 71.5188 204.173 74.9184 198.6 76.5C198.256 80.3136 198.056 84.1134 198 87.9C202.595 81.951 208.696 78.7512 216.3 78.3C215.003 85.3998 212.204 91.8 207.9 97.5C203.986 101.005 199.386 102.605 194.1 102.3C193.518 105.346 192.518 108.246 191.1 111C193.925 109.792 196.925 108.791 200.1 108C203.95 107.478 207.751 107.678 211.5 108.6C208.153 113.549 204.353 118.15 200.1 122.4C195.181 125.548 189.881 126.448 184.2 125.1C182.201 127.402 180.301 129.802 178.5 132.3C178.8 132.5 179.1 132.7 179.4 132.9C186.377 130.907 193.077 131.606 199.5 135C195.039 139.528 190.039 143.328 184.5 146.4C178.514 148.405 172.714 147.904 167.1 144.9C164.789 147.112 162.389 149.212 159.9 151.2C166.726 150.707 173.126 152.107 179.1 155.4C180.037 155.965 180.837 156.665 181.5 157.5C174.961 162.419 167.661 165.619 159.6 167.1C154.249 166.552 149.549 164.552 145.5 161.1C142.604 162.448 139.805 163.948 137.1 165.6C144.397 167.146 150.197 170.947 154.5 177C149.091 178.562 143.591 179.662 138 180.3C131.211 179.806 125.811 176.806 121.8 171.3C119.956 172.115 118.056 172.815 116.1 173.4C121.824 174.86 126.824 177.56 131.1 181.5C130.476 182.625 129.576 183.425 128.4 183.9C118.652 175.783 107.953 174.083 96.3 178.8C93.6936 180.103 91.2937 181.702 89.1001 183.6C87.4296 183.85 86.2297 183.15 85.5001 181.5C89.7763 177.56 94.7761 174.86 100.5 173.4C98.6292 172.577 96.7297 171.877 94.8 171.3C90.909 176.698 85.6093 179.698 78.9001 180.3C73.3117 179.863 67.9117 178.663 62.7001 176.7C66.9199 170.587 72.7195 166.886 80.1001 165.6C77.1439 164.172 74.2435 162.672 71.4001 161.1C64.4502 166.89 56.7499 168.19 48.3 165C43.9075 163.005 39.7075 160.705 35.7001 158.1C35.0875 157.799 34.9873 157.399 35.4001 156.9C41.8111 152.575 48.9109 150.676 56.7001 151.2C54.2113 149.212 51.8113 147.112 49.5 144.9C41.2261 149.32 33.426 148.62 26.1 142.8C23.4 140.5 20.7001 138.2 18 135.9C17.7312 134.755 18.231 134.054 19.5 133.8C25.8078 131.499 32.2075 131.099 38.7001 132.6C36.6691 130.37 34.869 127.97 33.3 125.4C26.9886 126.653 21.189 125.453 15.9 121.8C11.9286 117.931 8.52905 113.632 5.70005 108.9C12.5286 106.83 19.0285 107.63 25.2001 111.3C24.3337 108.346 23.4336 105.346 22.5 102.3C13.0356 102.419 6.73565 98.019 3.60005 89.1C2.31425 85.5432 1.21385 81.9432 0.300049 78.3C7.63985 78.8202 13.74 81.8202 18.6 87.3C18.6012 83.7066 18.4009 80.1066 18 76.5C8.98325 73.2822 4.38305 66.882 4.20005 57.3C3.79985 53.7 3.79985 50.1 4.20005 46.5C11.1846 49.4844 16.1844 54.4848 19.2001 61.5C19.9764 58.6194 20.6761 55.7196 21.3 52.8C19.2204 50.9172 17.3202 48.8172 15.6 46.5C12.7152 40.7682 12.1152 34.7682 13.8 28.5C14.5206 25.638 15.4206 22.8378 16.5 20.1C22.2594 24.2046 25.7593 29.8044 27 36.9C27.8731 34.8528 28.9729 32.9526 30.3001 31.2C25.7778 26.6208 24.0781 21.1206 25.2001 14.7C27.1854 9.53101 29.4853 4.53121 32.1 -0.299988Z" fill="#685C45"/>
<path opacity="0.787" fill-rule="evenodd" clip-rule="evenodd" d="M108.9 29.1C123.033 36.4776 138.033 41.0772 153.9 42.9C154.414 57.2814 153.114 71.4816 150 85.5C143.784 107.51 130.684 124.01 110.7 135C109.7 135.4 108.7 135.4 107.7 135C84.8568 121.531 71.1564 101.63 66.6 75.3C65.484 64.7142 64.884 54.114 64.8 43.5C75.978 41.7798 86.8783 38.88 97.5 34.8C101.504 33.198 105.304 31.2978 108.9 29.1Z" fill="#695D47"/>
<path fill-rule="evenodd" clip-rule="evenodd" d="M104.7 55.5C107.162 55.3818 109.262 56.1822 111 57.9C114.069 56.6418 115.569 57.642 115.5 60.9C118.07 61.431 118.97 63.0306 118.2 65.7C117.9 66 117.6 66.3 117.3 66.6C108.893 67.0998 100.493 66.9996 92.1 66.3C91.509 65.3412 91.4094 64.341 91.8 63.3C93.1938 61.326 94.6938 59.4258 96.3 57.6C98.0874 56.373 99.7872 56.4732 101.4 57.9C102.603 57.1908 103.703 56.391 104.7 55.5Z" fill="#F9F9F8"/>
<path fill-rule="evenodd" clip-rule="evenodd" d="M92.6999 68.1C100.9 68.1 109.1 68.1 117.3 68.1C117.4 77.7018 117.3 87.3018 117 96.9C113.047 97.2948 109.046 97.4946 105 97.5C100.954 97.4946 96.9533 97.2948 92.9999 96.9C92.6999 87.3018 92.5997 77.7018 92.6999 68.1Z" fill="#FCFCFC"/>
<path fill-rule="evenodd" clip-rule="evenodd" d="M119.1 71.1C121.246 70.923 123.146 71.523 124.8 72.9C125.468 75.8346 125.768 78.8346 125.7 81.9C125.6 84.4998 125.5 87.1002 125.4 89.7C123.782 91.722 121.682 92.5224 119.1 92.1C119.1 91.3002 119.1 90.4998 119.1 89.7C120.626 89.9376 121.927 89.5374 123 88.5C123.4 83.8998 123.4 79.3002 123 74.7C121.927 73.6626 120.626 73.2624 119.1 73.5C119.1 72.7002 119.1 71.8998 119.1 71.1Z" fill="#F0EFED"/>
<path opacity="0.918" fill-rule="evenodd" clip-rule="evenodd" d="M98.7 73.5C99.0702 73.5666 99.3702 73.7664 99.6 74.1C99.9 79.8966 99.9996 85.6968 99.9 91.5C99.3 91.5 98.7 91.5 98.1 91.5C97.9158 85.4508 98.1156 79.4508 98.7 73.5Z" fill="#857B69"/>
<path opacity="0.906" fill-rule="evenodd" clip-rule="evenodd" d="M105.3 73.5C105.67 73.5666 105.97 73.7664 106.2 74.1C106.5 79.8966 106.6 85.6968 106.5 91.5C105.9 91.5 105.3 91.5 104.7 91.5C104.516 85.4508 104.716 79.4508 105.3 73.5Z" fill="#807663"/>
<path opacity="0.918" fill-rule="evenodd" clip-rule="evenodd" d="M111.9 73.5C112.697 76.2714 113.096 79.2714 113.1 82.5C112.9 85.5 112.7 88.5 112.5 91.5C112.148 91.3746 111.848 91.1742 111.6 90.9C111.116 85.0536 111.217 79.2534 111.9 73.5Z" fill="#847A68"/>
<path opacity="0.864" fill-rule="evenodd" clip-rule="evenodd" d="M183.9 214.5C198.918 212.798 207.318 219.398 209.1 234.3C206.903 249.584 198.103 256.085 182.7 253.8C171.59 249.487 167.09 241.387 169.2 229.5C171.415 221.786 176.315 216.785 183.9 214.5ZM187.5 216.9C197.573 218.623 202.973 224.623 203.7 234.9C203.201 244.513 198.202 249.913 188.7 251.1C179.38 249.275 174.38 243.575 173.7 234C174.29 224.923 178.89 219.223 187.5 216.9Z" fill="#685C45"/>
<path opacity="0.865" fill-rule="evenodd" clip-rule="evenodd" d="M9.8999 215.1C14.9039 215 19.9037 215.1 24.8999 215.4C30.8711 217.441 32.9711 221.541 31.1999 227.7C30.2141 229.186 29.1143 230.586 27.8999 231.9C33.7217 235.373 35.6213 240.373 33.5999 246.9C32.2007 250.298 29.7005 252.398 26.0999 253.2C20.6891 253.699 15.2891 253.599 9.8999 252.9C10.9181 252.382 11.6177 251.582 11.9999 250.5C12.4001 239.7 12.4001 228.9 11.9999 218.1C11.0105 217.269 10.3103 216.269 9.8999 215.1ZM17.0999 217.5C22.5833 217.129 25.9835 219.529 27.2999 224.7C25.8707 229.726 22.4705 231.926 17.0999 231.3C17.0999 226.7 17.0999 222.1 17.0999 217.5ZM17.0999 233.7C24.5189 233 28.7189 236.3 29.6999 243.6C29.2133 246.886 27.4133 249.085 24.2999 250.2C21.9359 250.809 19.5359 251.109 17.0999 251.1C17.0999 245.3 17.0999 239.5 17.0999 233.7Z" fill="#685C45"/>
<path opacity="0.886" fill-rule="evenodd" clip-rule="evenodd" d="M98.7 215.1C104.104 215 109.504 215.1 114.9 215.4C121.469 218.083 123.37 222.783 120.6 229.5C120.026 230.147 119.527 230.847 119.1 231.6C117.259 232.717 115.459 233.816 113.7 234.9C117.082 240.182 120.583 245.382 124.2 250.5C125.247 251.374 126.347 252.173 127.5 252.9C123.371 254.434 120.071 253.434 117.6 249.9C114.3 244.9 111 239.9 107.7 234.9C107.205 234.368 106.605 234.169 105.9 234.3C105.8 239.903 105.9 245.504 106.2 251.1C106.813 251.612 107.313 252.212 107.7 252.9C104.7 253.7 101.7 253.7 98.7 252.9C99.5166 251.983 100.217 250.983 100.8 249.9C101.2 239.5 101.2 229.1 100.8 218.7C99.9474 217.557 99.2472 216.357 98.7 215.1ZM105.9 217.5C108.535 217.805 111.135 218.305 113.7 219C117.429 222.425 117.629 226.025 114.3 229.8C111.67 231.125 108.869 231.625 105.9 231.3C105.9 226.7 105.9 222.1 105.9 217.5Z" fill="#685C45"/>
<path opacity="0.853" fill-rule="evenodd" clip-rule="evenodd" d="M131.1 215.1C133.66 214.922 136.16 215.122 138.6 215.7C145.15 225.799 151.55 235.999 157.8 246.3C158.2 237.1 158.2 227.9 157.8 218.7C157.217 217.617 156.517 216.617 155.7 215.7C158.1 214.9 160.5 214.9 162.9 215.7C162.513 216.388 162.013 216.988 161.4 217.5C161.1 229.498 161 241.498 161.1 253.5C158.996 253.804 157.096 253.404 155.4 252.3C149.35 242.399 143.15 232.598 136.8 222.9C136.4 232.1 136.4 241.3 136.8 250.5C137.182 251.582 137.882 252.382 138.9 252.9C136.3 253.7 133.7 253.7 131.1 252.9C132.118 252.382 132.818 251.582 133.2 250.5C133.6 239.5 133.6 228.5 133.2 217.5C132.224 216.881 131.524 216.08 131.1 215.1Z" fill="#685C45"/>
<path opacity="0.88" fill-rule="evenodd" clip-rule="evenodd" d="M39.8999 215.1C47.5001 215.1 55.0997 215.1 62.6999 215.1C62.8919 217.139 62.6921 219.139 62.0999 221.1C61.4759 219.336 60.2759 218.236 58.4999 217.8C54.7049 217.5 50.9051 217.4 47.0999 217.5C47.0999 222.1 47.0999 226.7 47.0999 231.3C50.1065 231.4 53.1065 231.299 56.0999 231C57.8681 230.933 58.6679 230.033 58.4999 228.3C59.0999 228.3 59.6999 228.3 60.2999 228.3C60.2999 231.1 60.2999 233.9 60.2999 236.7C59.6999 236.7 59.0999 236.7 58.4999 236.7C58.6679 234.967 57.8681 234.067 56.0999 234C53.1065 233.701 50.1065 233.6 47.0999 233.7C47.0999 239.5 47.0999 245.3 47.0999 251.1C51.1049 251.2 55.1051 251.1 59.0999 250.8C61.5107 250.282 62.7107 248.782 62.6999 246.3C63.2999 246.3 63.8999 246.3 64.4999 246.3C64.4999 248.7 64.4999 251.1 64.4999 253.5C56.2901 253.7 48.0899 253.499 39.8999 252.9C40.7165 251.983 41.4167 250.983 41.9999 249.9C42.4001 239.5 42.4001 229.1 41.9999 218.7C41.1473 217.557 40.4471 216.357 39.8999 215.1Z" fill="#685C45"/>
<path opacity="0.88" fill-rule="evenodd" clip-rule="evenodd" d="M69.3 215.1C76.9002 215.1 84.4998 215.1 92.1 215.1C92.292 217.139 92.0922 219.139 91.5 221.1C90.876 219.336 89.6761 218.236 87.9 217.8C84.105 217.5 80.3052 217.4 76.5 217.5C76.5 222.1 76.5 226.7 76.5 231.3C79.5066 231.4 82.5066 231.299 85.5 231C87.2682 230.933 88.0681 230.033 87.9 228.3C88.5 228.3 89.1 228.3 89.7001 228.3C89.7001 231.1 89.7001 233.9 89.7001 236.7C89.1 236.7 88.5 236.7 87.9 236.7C88.0681 234.967 87.2682 234.067 85.5 234C82.5066 233.701 79.5066 233.6 76.5 233.7C76.5 239.5 76.5 245.3 76.5 251.1C80.505 251.2 84.5052 251.1 88.5 250.8C90.9109 250.282 92.1108 248.782 92.1 246.3C92.7001 246.3 93.3 246.3 93.9 246.3C93.9 248.7 93.9 251.1 93.9 253.5C85.6903 253.7 77.49 253.499 69.3 252.9C70.1166 251.983 70.8168 250.983 71.4 249.9C71.8002 239.5 71.8002 229.1 71.4 218.7C70.5474 217.557 69.8472 216.357 69.3 215.1Z" fill="#685C45"/>
</g>
<defs>
<clipPath id="clip0_2007_102">
<rect width="216" height="254" fill="white"/>
</clipPath>
</defs>
</svg>
