<svg width="28" height="28" viewBox="0 0 28 28" fill="none" xmlns="http://www.w3.org/2000/svg">
<path fill-rule="evenodd" clip-rule="evenodd" d="M23.9467 26.3903L18.3416 20.7851C18.803 20.4464 19.2498 20.0823 19.6658 19.6662C20.0717 19.2534 20.4462 18.8107 20.7861 18.342L26.3912 23.9458L23.9467 26.3903ZM4.31218 18.7221C0.339399 14.7493 0.339399 8.28532 4.31218 4.31253C5.25772 3.36566 6.38102 2.61491 7.61754 2.10341C8.85406 1.59191 10.1794 1.32973 11.5176 1.33193C14.1274 1.33193 16.7359 2.32546 18.723 4.31253C22.6971 8.28532 22.6971 14.7493 18.723 18.7221C14.7502 22.6962 8.28629 22.6962 4.31218 18.7221ZM27.8048 23.475C27.9298 23.6001 28 23.7696 28 23.9464C28 24.1232 27.9298 24.2928 27.8048 24.4179L24.4188 27.8052C24.2933 27.93 24.1236 28 23.9467 28C23.7698 28 23.6 27.93 23.4746 27.8052L17.2 21.5293C15.0084 22.7741 12.4691 23.2659 9.97124 22.9294C7.47337 22.5929 5.15474 21.4466 3.37066 19.6662C-1.12355 15.172 -1.12355 7.86257 3.37066 3.36967C7.8622 -1.12322 15.173 -1.12322 19.6672 3.36967C23.4079 7.11175 24.0227 12.8035 21.5302 17.1991L27.8048 23.475ZM11.5189 5.27138C9.83943 5.27315 8.22923 5.94111 7.04165 7.12869C5.85407 8.31628 5.18611 9.92648 5.18435 11.606C5.18435 11.7828 5.2546 11.9524 5.37965 12.0775C5.5047 12.2025 5.6743 12.2728 5.85114 12.2728C6.02799 12.2728 6.19759 12.2025 6.32264 12.0775C6.44769 11.9524 6.51794 11.7828 6.51794 11.606C6.5197 10.2802 7.04716 9.00918 7.98464 8.07169C8.92212 7.1342 10.1931 6.60675 11.5189 6.60498C11.6958 6.60498 11.8654 6.53473 11.9904 6.40968C12.1155 6.28463 12.1857 6.11503 12.1857 5.93818C12.1857 5.76134 12.1155 5.59173 11.9904 5.46668C11.8654 5.34164 11.6958 5.27138 11.5189 5.27138Z" fill="#A8A5A3"/>
</svg>
